# xmcd CD database file
#
# Track frame offsets:
#	150
#	15702
#	30527
#
# Disc length: 613 seconds
#
# Revision: 0
# Processed by: cddbd v1.5PL3 Copyright (c) Steve Scherf et al.
# Submitted via: CDex 1.51
#
DISCID=18026303
DTITLE=七緒香 - 恋は舞い降りた
DYEAR=1997
DGENRE=JPop
TTITLE0=恋は舞い降りた
TTITLE1=GO WAY
TTITLE2=恋は舞い降りた (original karaoke)
EXTD=YEAR: 1997
EXTT0=
EXTT1=
EXTT2=
PLAYORDER=
